<?xml version="1.0" encoding="UTF-8"?>
<!DOCTYPE svg PUBLIC "-//W3C//DTD SVG 1.1//EN" "http://www.w3.org/Graphics/SVG/1.1/DTD/svg11.dtd">
<!-- Creator: CorelDRAW 2021 (64 Bit) -->
<svg xmlns="http://www.w3.org/2000/svg" xml:space="preserve" width="89.7219mm" height="25.1981mm" version="1.1" style="shape-rendering:geometricPrecision; text-rendering:geometricPrecision; image-rendering:optimizeQuality; fill-rule:evenodd; clip-rule:evenodd"
viewBox="0 0 8598.59 2414.89"
 xmlns:xlink="http://www.w3.org/1999/xlink"
 xmlns:xodm="http://www.corel.com/coreldraw/odm/2003">
 <defs>
  <style type="text/css">
   <![CDATA[
    .fil0 {fill:#00151D;fill-rule:nonzero}
   ]]>
  </style>
 </defs>
 <g id="Camada_x0020_1">
  <metadata id="CorelCorpID_0Corel-Layer"/>
  <g id="_2558305789856">
   <path class="fil0" d="M2076.81 2370.05l0 -1010.78c0,-59.81 -7.2,-111.27 -21.57,-154.41 -14.37,-43.11 -38.54,-76.17 -72.45,-99.16 -33.95,-22.99 -80.8,-34.52 -140.57,-34.52 -50.61,0 -94.87,9.51 -132.8,28.47 -37.97,18.97 -69.62,44.83 -94.87,77.63 -25.33,32.76 -44.3,69.85 -56.94,111.26l-50.04 -246.66 46.59 0c18.36,-75.87 47.71,-144.61 87.97,-206.13 40.24,-61.5 95.99,-110.36 167.32,-146.63 71.27,-36.21 162.69,-54.33 274.26,-54.33 120.72,0 219.31,23.9 295.83,71.57 76.44,47.74 133.07,119.08 169.89,213.91 36.78,94.87 55.21,213.03 55.21,354.49l0 1095.31 -527.83 0zm-1038.4 0l0 -1010.78c0,-59.81 -7.2,-111.27 -21.57,-154.41 -14.37,-43.11 -38.81,-76.17 -73.3,-99.16 -34.52,-22.99 -81.08,-34.52 -139.73,-34.52 -51.73,0 -96.59,9.51 -134.53,28.47 -37.97,18.97 -69.31,44.83 -94.02,77.63 -24.74,32.76 -43.41,69.85 -56.05,111.26l-81.08 -246.66 89.69 0c17.25,-77.01 45.71,-146.03 85.37,-206.98 39.7,-60.96 94.6,-109.51 164.75,-145.79 70.12,-36.21 158.69,-54.33 265.64,-54.33 157.54,0 276.25,40.54 356.2,121.61 79.89,81.08 130.23,198.63 150.92,352.76 3.45,22.99 6.9,51.19 10.35,84.53 3.45,33.33 5.18,63.25 5.18,89.65l0 1086.72 -527.83 0zm-1038.4 0l0 -1695.59 524.38 0 -17.25 457.06 20.69 17.28 0 1221.25 -527.82 0z"/>
   <path class="fil0" d="M3879.33 2370.05l15.52 -424.34 -12.08 -25.86 0 -529.55 -3.44 -69c0,-94.29 -27.59,-163.87 -82.8,-208.7 -55.21,-44.86 -147.78,-67.32 -277.7,-67.32 -113.87,0 -221.96,14.4 -324.3,43.15 -102.37,28.77 -198.97,61.53 -289.77,98.31l44.83 -408.82c54.06,-25.25 114.71,-49.12 181.99,-71.57 67.28,-22.38 141.69,-40.5 223.37,-54.29 81.61,-13.83 169.05,-20.73 262.19,-20.73 148.32,0 272.53,17.24 372.57,51.8 100.03,34.44 179.96,83.34 239.77,146.55 59.77,63.29 102.88,138.9 129.35,226.82 26.44,87.98 39.7,184.87 39.7,290.69l0 1022.86 -519.2 0zm-539.9 39.69c-169.04,0 -297.27,-42.53 -384.68,-127.66 -87.39,-85.09 -131.07,-206.4 -131.07,-363.95l0 -46.56c0,-166.75 51.46,-290.08 154.37,-370 102.92,-79.96 266.52,-134.26 490.74,-163.03l455.36 -60.35 31.07 317.36 -403.64 58.62c-81.64,10.38 -139.15,29.34 -172.49,56.97 -33.37,27.55 -50.01,68.43 -50.01,122.45l0 12.08c0,51.76 16.64,92.87 50.01,123.33 33.33,30.47 86.82,45.71 160.42,45.71 64.4,0 119.88,-9.78 166.48,-29.32 46.55,-19.54 84.76,-45.14 114.68,-76.78 29.88,-31.61 52.34,-66.97 67.28,-106.05l74.18 213.88 -86.24 0c-18.39,73.63 -46.86,140.3 -85.4,200.08 -38.55,59.84 -94,106.97 -166.45,141.45 -72.45,34.48 -167.32,51.76 -284.6,51.76z"/>
   <polygon class="fil0" points="5447.25,2025.06 5756,674.47 6297.62,674.47 5847.42,2370.04 5002.23,2370.04 4548.55,674.47 5093.65,674.47 5405.84,2025.06 "/>
   <path class="fil0" d="M6473.52 674.46l527.82 0 0 1695.58 -527.82 0 0 -1695.58zm263.9 -160.39c-98.92,0 -170.76,-22.71 -215.63,-68.16 -44.83,-45.41 -67.25,-106.63 -67.25,-183.68l0 -12.1c0,-77.01 22.42,-138 67.25,-182.84 44.87,-44.83 116.71,-67.29 215.63,-67.29 96.59,0 167.6,22.45 213.03,67.29 45.41,44.83 68.12,105.82 68.12,182.84l0 12.1c0,78.16 -22.71,139.73 -68.12,184.56 -45.44,44.83 -116.44,67.28 -213.03,67.28z"/>
   <path class="fil0" d="M8050.07 2414.89c-269.08,0 -468.62,-70.73 -598.55,-212.15 -129.95,-141.45 -194.9,-340.38 -194.9,-596.83l0 -175.94c0,-251.81 64.95,-448.45 194.9,-589.9 129.93,-141.45 328.86,-212.15 596.83,-212.15 69,0 133.38,4.87 193.19,14.64 59.77,9.77 114.98,23.3 165.6,40.54 50.58,17.24 94.87,35.67 132.8,55.17l43.15 436.41c-56.36,-32.19 -118.47,-58.93 -186.3,-80.2 -67.85,-21.27 -144.33,-31.91 -229.42,-31.91 -133.41,0 -230,32.18 -289.78,96.55 -59.8,64.47 -89.69,157.61 -89.69,279.46l0 146.63c0,124.18 31.62,219.66 94.87,286.37 63.22,66.66 162.15,100.03 296.67,100.03 83.95,0 159.59,-10.07 226.86,-30.19 67.25,-20.14 131.34,-46.28 192.3,-78.5l-41.38 438.12c-59.81,32.22 -133.41,59.24 -220.81,81.08 -87.39,21.84 -182.84,32.76 -286.33,32.76z"/>
  </g>
 </g>
</svg>
